<?xml version="1.0" encoding="UTF-8"?><svg
	id="Layer_1"
	xmlns="http://www.w3.org/2000/svg"
	viewBox="0 0 1030 241.3"
>
	<defs>
		<style>
			.url-explained-cls-1 {
				fill: var(--color-primary);
			}
			.url-explained-cls-2 {
				stroke: var(--color-primary);
			}
			.url-explained-cls-2,
			.url-explained-cls-3 {
				fill: none;
				stroke-miterlimit: 10;
				stroke-width: 4px;
			}
			.url-explained-cls-3 {
				stroke: currentColor;
			}
			.url-explained-cls-4 {
				fill: currentColor;
			}
		</style>
	</defs>
	<path
		class="url-explained-cls-4"
		d="M129.45,178.25h6.92c1.25,0,2.38.21,3.4.62s1.89,1.02,2.6,1.83c.72.81,1.27,1.83,1.67,3.05.39,1.22.59,2.65.59,4.27s-.2,3.05-.59,4.27-.95,2.24-1.67,3.05c-.72.81-1.59,1.42-2.6,1.83-1.02.41-2.15.62-3.4.62h-6.92v-19.54ZM136.37,194.99c1.46,0,2.63-.46,3.53-1.37.9-.91,1.34-2.26,1.34-4.03v-3.14c0-1.77-.45-3.12-1.34-4.03-.9-.91-2.07-1.37-3.53-1.37h-3.75v13.94h3.75Z"
	/>
	<path
		class="url-explained-cls-4"
		d="M154.06,198.13c-1.01,0-1.93-.18-2.76-.53s-1.54-.86-2.11-1.53c-.58-.66-1.03-1.47-1.34-2.41s-.48-1.99-.48-3.15.16-2.21.48-3.15.77-1.75,1.34-2.41c.58-.66,1.28-1.17,2.11-1.53.83-.35,1.75-.53,2.76-.53s1.93.18,2.76.53c.83.36,1.54.86,2.11,1.53.58.66,1.03,1.47,1.34,2.41.32.94.48,1.99.48,3.15s-.16,2.21-.48,3.15c-.32.94-.77,1.75-1.34,2.41-.58.66-1.28,1.17-2.11,1.53-.83.35-1.75.53-2.76.53ZM154.06,195.58c1.04,0,1.88-.32,2.52-.96s.95-1.6.95-2.88v-2.45c0-1.28-.32-2.24-.95-2.88-.63-.64-1.47-.96-2.52-.96s-1.89.32-2.52.96-.95,1.6-.95,2.88v2.45c0,1.28.32,2.24.95,2.88s1.47.96,2.52.96Z"
	/>
	<path
		class="url-explained-cls-4"
		d="M164.14,197.79v-14.56h3.05v2.41h.14c.15-.37.33-.73.55-1.06s.48-.63.78-.88.67-.45,1.09-.59.91-.21,1.47-.21c.99,0,1.87.24,2.63.73.76.49,1.33,1.23,1.68,2.24h.08c.26-.82.76-1.52,1.51-2.1s1.71-.87,2.88-.87c1.46,0,2.59.49,3.39,1.47s1.2,2.38,1.2,4.19v9.24h-3.05v-8.88c0-1.12-.21-1.96-.64-2.53-.43-.57-1.11-.85-2.04-.85-.39,0-.77.05-1.12.15-.35.1-.67.26-.94.46-.27.21-.49.47-.66.78-.17.32-.25.68-.25,1.09v9.77h-3.05v-8.88c0-2.26-.89-3.39-2.66-3.39-.37,0-.74.05-1.11.15-.36.1-.69.26-.97.46-.28.21-.5.47-.67.78-.17.32-.25.68-.25,1.09v9.77h-3.05v.02Z"
	/>
	<path
		class="url-explained-cls-4"
		d="M199.51,197.79c-.8,0-1.42-.23-1.85-.69-.43-.46-.69-1.04-.78-1.75h-.14c-.28.91-.79,1.61-1.54,2.07-.75.47-1.65.7-2.72.7-1.51,0-2.67-.39-3.49-1.18-.81-.78-1.22-1.84-1.22-3.16,0-1.46.53-2.55,1.58-3.28s2.6-1.09,4.63-1.09h2.63v-1.23c0-.9-.24-1.59-.73-2.07-.49-.49-1.24-.73-2.27-.73-.86,0-1.56.19-2.1.56-.54.37-1,.85-1.37,1.43l-1.82-1.65c.49-.82,1.17-1.5,2.04-2.03.88-.53,2.03-.8,3.44-.8,1.88,0,3.33.44,4.34,1.32s1.51,2.14,1.51,3.78v7.31h1.54v2.49h-1.71.03ZM193.35,195.8c.95,0,1.74-.21,2.35-.63s.92-.98.92-1.69v-2.1h-2.58c-2.11,0-3.16.65-3.16,1.96v.5c0,.65.22,1.14.66,1.47s1.04.49,1.81.49Z"
	/>
	<path
		class="url-explained-cls-4"
		d="M205.75,180.63c-.63,0-1.1-.15-1.39-.45s-.43-.68-.43-1.15v-.48c0-.47.14-.85.43-1.15s.75-.45,1.39-.45,1.09.15,1.37.45.42.68.42,1.15v.48c0,.47-.14.85-.42,1.15-.28.3-.74.45-1.37.45ZM204.21,183.23h3.05v14.56h-3.05v-14.56Z"
	/>
	<path
		class="url-explained-cls-4"
		d="M211.63,197.79v-14.56h3.05v2.41h.14c.32-.78.8-1.44,1.44-1.96s1.53-.78,2.65-.78c1.49,0,2.66.49,3.49,1.47s1.25,2.38,1.25,4.19v9.24h-3.05v-8.85c0-2.28-.91-3.42-2.74-3.42-.39,0-.78.05-1.16.15-.38.1-.72.26-1.02.46-.3.21-.54.47-.71.78-.18.32-.27.69-.27,1.12v9.74h-3.07Z"
	/>
	<path
		class="url-explained-cls-3"
		d="M335,97.65c0,19.61-27.97,35.57-62.37,35.57h-53.18l-39.9,22.75-39.9-22.75h-53.18c-34.38,0-62.37-15.95-62.37-35.57"
	/>
	<path
		class="url-explained-cls-4"
		d="M35.21,47.1h5.68v11.66h.23c.36-1.05.98-1.96,1.88-2.72.9-.77,2.14-1.15,3.72-1.15,2.07,0,3.64.69,4.7,2.07s1.59,3.35,1.59,5.91v12.62h-5.68v-12.16c0-1.3-.21-2.27-.61-2.9-.41-.63-1.14-.94-2.19-.94-.46,0-.91.06-1.34.17-.44.11-.83.3-1.17.56-.35.26-.62.57-.83.94s-.31.8-.31,1.28v13.04h-5.68v-28.39h.01Z"
	/>
	<path
		class="url-explained-cls-4"
		d="M65.13,75.48c-1.97,0-3.46-.5-4.47-1.5-1.01-1-1.52-2.46-1.52-4.37v-9.86h-2.84v-4.41h1.42c.77,0,1.29-.18,1.57-.56.28-.37.42-.9.42-1.59v-3.3h5.1v5.45h3.99v4.41h-3.99v11.32h3.68v4.41h-3.38.02Z"
	/>
	<path
		class="url-explained-cls-4"
		d="M79.63,75.48c-1.97,0-3.46-.5-4.47-1.5-1.01-1-1.52-2.46-1.52-4.37v-9.86h-2.84v-4.41h1.42c.77,0,1.29-.18,1.57-.56.28-.37.42-.9.42-1.59v-3.3h5.1v5.45h3.99v4.41h-3.99v11.32h3.68v4.41h-3.38.02Z"
	/>
	<path
		class="url-explained-cls-4"
		d="M87.26,55.35h5.68v3.38h.19c.28-1.12.93-2.05,1.94-2.76,1.01-.72,2.17-1.07,3.47-1.07,2.56,0,4.49.9,5.79,2.69s1.96,4.4,1.96,7.83-.65,6.04-1.96,7.84c-1.3,1.8-3.24,2.7-5.79,2.7-.67,0-1.29-.1-1.88-.29s-1.12-.46-1.59-.81c-.47-.35-.88-.75-1.21-1.23-.33-.47-.58-.98-.73-1.52h-.19v11.05h-5.68s0-27.81,0-27.81ZM96.66,71.35c1.07,0,1.96-.38,2.67-1.13.7-.75,1.06-1.77,1.06-3.05v-3.49c0-1.28-.35-2.29-1.06-3.05-.7-.75-1.59-1.13-2.67-1.13s-1.96.26-2.67.79c-.7.52-1.05,1.25-1.05,2.17v5.95c0,.92.35,1.64,1.05,2.17.7.52,1.59.79,2.67.79v-.02Z"
	/>
	<path
		class="url-explained-cls-4"
		d="M117.41,75.94c-1.94,0-3.58-.31-4.91-.94s-2.52-1.52-3.57-2.67l3.34-3.38c.72.79,1.51,1.42,2.38,1.88s1.85.69,2.95.69,1.9-.17,2.34-.52c.43-.35.65-.81.65-1.4,0-.95-.68-1.51-2.03-1.69l-2.19-.27c-4.53-.56-6.79-2.63-6.79-6.21,0-.97.19-1.86.56-2.67.37-.81.89-1.5,1.57-2.07s1.5-1.02,2.46-1.34,2.04-.48,3.24-.48c1.05,0,1.98.07,2.78.21s1.52.35,2.15.61c.63.27,1.2.6,1.73,1,.52.4,1.04.84,1.55,1.32l-3.26,3.34c-.64-.64-1.36-1.14-2.17-1.52-.81-.37-1.63-.56-2.47-.56-.97,0-1.66.15-2.07.46s-.61.72-.61,1.23c0,.54.15.95.44,1.25.29.29.85.51,1.67.63l2.26.31c4.42.59,6.64,2.61,6.64,6.06,0,.97-.21,1.87-.61,2.69s-.99,1.53-1.75,2.13c-.75.6-1.66,1.07-2.72,1.4s-2.24.5-3.55.5h0Z"
	/>
	<path
		class="url-explained-cls-4"
		d="M133.6,61.83c-1.15,0-2-.29-2.55-.86s-.82-1.31-.82-2.21v-.77c0-.9.27-1.63.82-2.21s1.4-.86,2.55-.86,2,.29,2.55.86c.55.58.82,1.31.82,2.21v.77c0,.9-.28,1.63-.82,2.21-.55.58-1.4.86-2.55.86ZM133.6,75.91c-1.15,0-2-.29-2.55-.86s-.82-1.31-.82-2.21v-.77c0-.89.27-1.63.82-2.21s1.4-.86,2.55-.86,2,.29,2.55.86c.55.58.82,1.31.82,2.21v.77c0,.9-.28,1.63-.82,2.21-.55.58-1.4.86-2.55.86Z"
	/>
	<path
		class="url-explained-cls-4"
		d="M140.04,81.28l11.43-34.18h4.68l-11.43,34.18s-4.68,0-4.68,0Z"
	/>
	<path class="url-explained-cls-4" d="M150.4,81.28l11.43-34.18h4.68l-11.43,34.18h-4.68Z" />
	<path
		class="url-explained-cls-4"
		d="M177.41,75.94c-1.94,0-3.58-.31-4.91-.94s-2.52-1.52-3.57-2.67l3.34-3.38c.72.79,1.51,1.42,2.38,1.88s1.85.69,2.95.69,1.9-.17,2.34-.52c.43-.35.65-.81.65-1.4,0-.95-.68-1.51-2.03-1.69l-2.19-.27c-4.53-.56-6.79-2.63-6.79-6.21,0-.97.19-1.86.56-2.67s.89-1.5,1.57-2.07,1.5-1.02,2.46-1.34,2.04-.48,3.24-.48c1.05,0,1.98.07,2.78.21s1.52.35,2.15.61c.63.27,1.2.6,1.73,1,.52.4,1.04.84,1.55,1.32l-3.26,3.34c-.64-.64-1.36-1.14-2.17-1.52-.81-.37-1.63-.56-2.47-.56-.97,0-1.66.15-2.07.46s-.61.72-.61,1.23c0,.54.15.95.44,1.25.29.29.85.51,1.67.63l2.26.31c4.42.59,6.64,2.61,6.64,6.06,0,.97-.21,1.87-.61,2.69s-.99,1.53-1.75,2.13c-.75.6-1.66,1.07-2.72,1.4s-2.24.5-3.55.5h0Z"
	/>
	<path
		class="url-explained-cls-4"
		d="M341.24,75.94c-1.94,0-3.58-.31-4.91-.94s-2.52-1.52-3.57-2.67l3.34-3.38c.72.79,1.51,1.42,2.38,1.88s1.85.69,2.95.69,1.9-.17,2.34-.52c.43-.35.65-.81.65-1.4,0-.95-.68-1.51-2.03-1.69l-2.19-.27c-4.53-.56-6.79-2.63-6.79-6.21,0-.97.19-1.86.56-2.67s.89-1.5,1.57-2.07,1.5-1.02,2.46-1.34,2.04-.48,3.24-.48c1.05,0,1.98.07,2.78.21s1.52.35,2.15.61c.63.27,1.2.6,1.73,1,.52.4,1.04.84,1.55,1.32l-3.26,3.34c-.64-.64-1.36-1.14-2.17-1.52-.81-.37-1.63-.56-2.47-.56-.97,0-1.66.15-2.07.46s-.61.72-.61,1.23c0,.54.15.95.44,1.25.29.29.85.51,1.67.63l2.26.31c4.42.59,6.64,2.61,6.64,6.06,0,.97-.21,1.87-.61,2.69s-.99,1.53-1.75,2.13c-.75.6-1.66,1.07-2.72,1.4s-2.24.5-3.55.5h0Z"
	/>
	<path
		class="url-explained-cls-4"
		d="M198.05,75.94c-1.51,0-2.85-.25-4.03-.75s-2.16-1.2-2.95-2.11-1.39-2.01-1.8-3.32c-.41-1.3-.61-2.76-.61-4.37s.2-3.06.61-4.35,1.01-2.4,1.8-3.32c.79-.92,1.78-1.62,2.95-2.11,1.18-.49,2.52-.73,4.03-.73,2.05,0,3.75.46,5.12,1.38s2.35,2.21,2.93,3.88l-4.6,1.99c-.18-.77-.55-1.42-1.11-1.96s-1.34-.81-2.34-.81c-1.15,0-2.02.38-2.61,1.13s-.88,1.77-.88,3.05v3.76c0,1.28.29,2.29.88,3.03.59.74,1.46,1.11,2.61,1.11,1.02,0,1.83-.27,2.44-.82s1.04-1.27,1.32-2.17l4.41,1.92c-.67,1.92-1.69,3.32-3.09,4.22-1.39.89-3.09,1.34-5.08,1.34h0Z"
	/>
	<path
		class="url-explained-cls-4"
		d="M209.74,75.48v-20.14h5.68v4.37h.19c.1-.56.28-1.11.54-1.63s.59-.99,1.02-1.4c.42-.41.93-.73,1.52-.98.59-.24,1.28-.37,2.07-.37h1v5.29h-1.42c-1.66,0-2.9.22-3.7.65-.81.44-1.21,1.24-1.21,2.42v11.78h-5.69Z"
	/>
	<path
		class="url-explained-cls-4"
		d="M232.45,75.48c-1.97,0-3.46-.5-4.47-1.5s-1.52-2.46-1.52-4.37v-9.86h-2.84v-4.41h1.42c.77,0,1.29-.18,1.57-.56.28-.37.42-.9.42-1.59v-3.3h5.1v5.45h3.99v4.41h-3.99v11.32h3.68v4.41h-3.38.02Z"
	/>
	<path
		class="url-explained-cls-4"
		d="M243.39,75.91c-1.15,0-2-.29-2.55-.86s-.82-1.31-.82-2.21v-.77c0-.89.27-1.63.82-2.21s1.4-.86,2.55-.86,2,.29,2.55.86c.55.58.82,1.31.82,2.21v.77c0,.9-.27,1.63-.82,2.21s-1.4.86-2.55.86Z"
	/>
	<path
		class="url-explained-cls-4"
		d="M257.62,75.48c-1.94,0-3.37-.47-4.28-1.42s-1.36-2.31-1.36-4.1v-22.86h5.68v23.98h2.53v4.41h-2.57,0Z"
	/>
	<path
		class="url-explained-cls-4"
		d="M266.44,53.2c-1.15,0-1.99-.26-2.51-.79-.52-.52-.79-1.19-.79-2.01v-.84c0-.82.26-1.49.79-2.01s1.36-.79,2.51-.79,1.99.26,2.51.79.79,1.2.79,2.01v.84c0,.82-.26,1.49-.79,2.01-.52.52-1.36.79-2.51.79ZM263.6,55.35h5.68v20.14h-5.68v-20.14Z"
	/>
	<path
		class="url-explained-cls-4"
		d="M274.57,75.48v-20.14h5.68v3.41h.23c.36-1.05.98-1.96,1.88-2.72.9-.77,2.14-1.15,3.72-1.15,2.07,0,3.64.69,4.7,2.07s1.59,3.35,1.59,5.91v12.62h-5.68v-12.16c0-1.3-.21-2.27-.61-2.9-.41-.63-1.14-.94-2.19-.94-.46,0-.91.06-1.34.17-.44.11-.83.3-1.17.56-.35.26-.62.57-.83.94s-.31.8-.31,1.28v13.04h-5.68,0Z"
	/>
	<path
		class="url-explained-cls-4"
		d="M297.43,47.1h5.68v16.76h.23l2.49-3.72,4.03-4.8h6.29l-6.71,7.71,7.48,12.43h-6.75l-4.53-8.52-2.53,2.84v5.68h-5.68v-28.39h0Z"
	/>
	<path class="url-explained-cls-4" d="M317.04,81.28l11.43-34.18h4.68l-11.43,34.18h-4.68Z" />
	<path
		class="url-explained-cls-4"
		d="M368.62,69.04h-6.14l-1.15,6.64h-3.61l1.15-6.64h-3.87v-3.45h4.49l1.11-6.6h-3.87v-3.45h4.49l1.15-6.64h3.57l-1.15,6.64h6.14l1.15-6.64h3.61l-1.15,6.64h3.88v3.45h-4.49l-1.11,6.6h3.87v3.45h-4.49l-1.15,6.64h-3.57l1.15-6.64h-.01ZM369.2,65.59l1.15-6.6h-6.14l-1.15,6.6h6.14Z"
	/>
	<path
		class="url-explained-cls-1"
		d="M684.93,198.13v-19.54h12.52v2.8h-9.35v5.43h8.48v2.8h-8.48v5.71h9.35v2.8h-12.52Z"
	/>
	<path
		class="url-explained-cls-1"
		d="M701.31,198.13v-14.56h3.05v2.41h.14c.32-.78.8-1.44,1.44-1.96s1.53-.78,2.65-.78c1.49,0,2.66.49,3.49,1.47s1.25,2.38,1.25,4.19v9.24h-3.05v-8.85c0-2.28-.91-3.42-2.74-3.42-.39,0-.78.05-1.16.15-.38.1-.72.26-1.02.46s-.54.47-.71.78c-.18.32-.27.69-.27,1.12v9.74h-3.07Z"
	/>
	<path
		class="url-explained-cls-1"
		d="M723.18,198.47c-1.04,0-1.98-.18-2.8-.53s-1.51-.86-2.07-1.53c-.56-.66-.99-1.46-1.29-2.41-.3-.94-.45-1.99-.45-3.15s.15-2.21.45-3.15c.3-.94.73-1.75,1.29-2.41s1.25-1.17,2.07-1.53c.82-.35,1.75-.53,2.8-.53,1.46,0,2.65.33,3.58.98s1.61,1.52,2.04,2.6l-2.52,1.18c-.21-.67-.56-1.21-1.08-1.61-.51-.4-1.19-.6-2.03-.6-1.12,0-1.96.35-2.53,1.05s-.85,1.61-.85,2.72v2.6c0,1.12.28,2.03.85,2.72.57.7,1.41,1.05,2.53,1.05.9,0,1.61-.22,2.14-.66s.96-1.02,1.27-1.75l2.32,1.23c-.49,1.2-1.21,2.12-2.18,2.76-.97.64-2.16.96-3.56.96h.02Z"
	/>
	<path
		class="url-explained-cls-1"
		d="M731.83,198.13v-14.56h3.05v2.8h.14c.21-.75.63-1.4,1.29-1.96s1.56-.84,2.72-.84h.81v2.94h-1.2c-1.21,0-2.14.2-2.79.59-.64.39-.97.97-.97,1.74v9.3h-3.05Z"
	/>
	<path
		class="url-explained-cls-1"
		d="M751.74,183.57h2.94l-6.13,17.44c-.17.49-.36.9-.57,1.25s-.47.62-.76.84-.64.37-1.05.48c-.41.1-.9.15-1.46.15h-1.76v-2.49h2.46l.84-2.46-5.29-15.2h3.05l2.91,8.57.84,3.16h.14l.92-3.16,2.91-8.57h.01Z"
	/>
	<path
		class="url-explained-cls-1"
		d="M757.2,183.57h3.05v2.41h.14c.32-.88.83-1.55,1.55-2.03s1.56-.71,2.53-.71c1.85,0,3.28.67,4.28,2s1.51,3.21,1.51,5.61-.5,4.28-1.51,5.62-2.44,2-4.28,2c-.97,0-1.82-.24-2.53-.73s-1.24-1.16-1.55-2.02h-.14v8.01h-3.05v-20.16h0ZM763.56,195.83c1.06,0,1.91-.34,2.55-1.02s.95-1.58.95-2.7v-2.52c0-1.12-.32-2.02-.95-2.7s-1.48-1.02-2.55-1.02c-.93,0-1.72.23-2.35.69-.64.46-.95,1.06-.95,1.8v4.98c0,.75.32,1.35.95,1.81.63.46,1.42.69,2.35.69h0Z"
	/>
	<path
		class="url-explained-cls-1"
		d="M777.64,198.13c-1.06,0-1.87-.28-2.41-.83s-.81-1.33-.81-2.34v-8.9h-2.27v-2.49h1.23c.5,0,.85-.11,1.05-.34.2-.22.29-.59.29-1.09v-2.55h2.74v3.98h3.05v2.49h-3.05v9.58h2.83v2.49h-2.66.01Z"
	/>
	<path
		class="url-explained-cls-1"
		d="M785.37,180.97c-.63,0-1.1-.15-1.39-.45-.29-.3-.43-.68-.43-1.15v-.48c0-.47.14-.85.43-1.15s.75-.45,1.39-.45,1.09.15,1.37.45c.28.3.42.68.42,1.15v.48c0,.47-.14.85-.42,1.15-.28.3-.74.45-1.37.45ZM783.83,183.57h3.05v14.56h-3.05v-14.56Z"
	/>
	<path
		class="url-explained-cls-1"
		d="M796.96,198.47c-1.01,0-1.93-.18-2.76-.53s-1.54-.86-2.11-1.53c-.58-.66-1.03-1.46-1.34-2.41-.32-.94-.48-1.99-.48-3.15s.16-2.21.48-3.15c.32-.94.77-1.75,1.34-2.41.58-.66,1.28-1.17,2.11-1.53.83-.35,1.75-.53,2.76-.53s1.93.18,2.76.53c.83.36,1.54.87,2.11,1.53.58.66,1.03,1.46,1.34,2.41.32.94.48,1.99.48,3.15s-.16,2.21-.48,3.15c-.32.94-.77,1.75-1.34,2.41-.58.66-1.28,1.17-2.11,1.53-.83.36-1.75.53-2.76.53ZM796.96,195.92c1.04,0,1.88-.32,2.52-.96s.95-1.6.95-2.88v-2.45c0-1.28-.32-2.24-.95-2.88s-1.47-.96-2.52-.96-1.89.32-2.52.96-.95,1.6-.95,2.88v2.45c0,1.28.32,2.24.95,2.88s1.47.96,2.52.96Z"
	/>
	<path
		class="url-explained-cls-1"
		d="M807.04,198.13v-14.56h3.05v2.41h.14c.32-.78.8-1.44,1.44-1.96s1.53-.78,2.65-.78c1.49,0,2.66.49,3.49,1.47s1.25,2.38,1.25,4.19v9.24h-3.05v-8.85c0-2.28-.91-3.42-2.74-3.42-.39,0-.78.05-1.16.15-.38.1-.72.26-1.02.46s-.54.47-.71.78c-.18.32-.27.69-.27,1.12v9.74h-3.07Z"
	/>
	<path
		class="url-explained-cls-1"
		d="M835.96,189l-2.69,3.08v6.05h-3.16v-19.54h3.16v9.91h.11l2.8-3.56,5.26-6.36h3.7l-6.97,8.23,7.53,11.31h-3.81l-5.94-9.13h0Z"
	/>
	<path
		class="url-explained-cls-1"
		d="M853.38,198.47c-1.05,0-1.98-.18-2.8-.53s-1.52-.86-2.1-1.53c-.58-.66-1.02-1.46-1.33-2.41-.31-.94-.46-1.99-.46-3.15s.15-2.21.46-3.15c.31-.94.75-1.75,1.33-2.41s1.28-1.17,2.1-1.53c.82-.35,1.75-.53,2.8-.53s2,.19,2.81.56,1.49.89,2.03,1.55c.54.66.95,1.43,1.22,2.31s.41,1.82.41,2.83v1.15h-10v.47c0,1.11.33,2.03.99,2.74s1.61,1.07,2.84,1.07c.9,0,1.65-.19,2.27-.58s1.14-.92,1.57-1.59l1.79,1.77c-.54.9-1.33,1.62-2.35,2.15-1.03.53-2.22.8-3.58.8h0ZM853.38,185.62c-.52,0-1,.09-1.44.28s-.81.45-1.12.78-.55.74-.71,1.21-.25.98-.25,1.54v.2h6.78v-.28c0-1.12-.29-2.02-.87-2.7s-1.37-1.02-2.38-1.02h-.01Z"
	/>
	<path
		class="url-explained-cls-1"
		d="M872,183.57h2.94l-6.13,17.44c-.17.49-.36.9-.57,1.25s-.47.62-.76.84-.64.37-1.05.48c-.41.1-.9.15-1.46.15h-1.76v-2.49h2.46l.84-2.46-5.29-15.2h3.05l2.91,8.57.84,3.16h.14l.92-3.16,2.91-8.57h.01Z"
	/>
	<path
		class="url-explained-cls-1"
		d="M540.9,198.13c-1.64,0-3.04-.3-4.19-.9s-2.13-1.4-2.95-2.41l2.18-2.04c.69.84,1.45,1.47,2.28,1.9s1.78.64,2.84.64c1.25,0,2.19-.28,2.83-.84.63-.56.95-1.32.95-2.27,0-.76-.22-1.37-.67-1.82-.45-.45-1.24-.78-2.38-1.01l-1.74-.31c-1.9-.35-3.33-.98-4.28-1.88-.95-.9-1.43-2.13-1.43-3.7,0-.86.16-1.64.49-2.34s.78-1.29,1.37-1.76c.59-.48,1.3-.84,2.14-1.11.84-.26,1.78-.39,2.83-.39,1.47,0,2.75.26,3.84.77,1.08.51,2.01,1.26,2.77,2.23l-2.21,1.96c-.5-.65-1.12-1.18-1.85-1.57-.73-.39-1.63-.59-2.72-.59s-1.99.22-2.6.67c-.62.45-.92,1.1-.92,1.96s.25,1.43.76,1.83c.5.4,1.29.71,2.35.91l1.74.36c1.96.37,3.39,1.01,4.3,1.9.91.9,1.36,2.13,1.36,3.7,0,.92-.16,1.75-.48,2.49-.32.75-.78,1.39-1.39,1.92-.61.53-1.35.94-2.23,1.23s-1.88.43-3,.43v.04Z"
	/>
	<path
		class="url-explained-cls-1"
		d="M557.29,198.13c-1.05,0-1.98-.18-2.8-.53s-1.52-.86-2.1-1.53c-.58-.66-1.02-1.47-1.33-2.41s-.46-1.99-.46-3.15.15-2.21.46-3.15.75-1.75,1.33-2.41,1.28-1.17,2.1-1.53c.82-.35,1.75-.53,2.8-.53s2,.19,2.81.56,1.49.89,2.03,1.55.95,1.43,1.22,2.31.41,1.82.41,2.83v1.15h-10v.47c0,1.11.33,2.03.99,2.74s1.61,1.07,2.84,1.07c.9,0,1.65-.19,2.27-.58s1.14-.92,1.57-1.59l1.79,1.77c-.54.9-1.33,1.61-2.35,2.15-1.03.53-2.22.8-3.58.8h0ZM557.29,185.28c-.52,0-1,.09-1.44.28s-.81.45-1.12.78-.55.74-.71,1.2-.25.98-.25,1.54v.2h6.78v-.28c0-1.12-.29-2.02-.87-2.7s-1.37-1.02-2.38-1.02h-.01Z"
	/>
	<path
		class="url-explained-cls-1"
		d="M572.77,198.13c-1.04,0-1.98-.18-2.8-.53s-1.51-.86-2.07-1.53c-.56-.66-.99-1.47-1.29-2.41-.3-.94-.45-1.99-.45-3.15s.15-2.21.45-3.15c.3-.94.73-1.75,1.29-2.41s1.25-1.17,2.07-1.53c.82-.35,1.75-.53,2.8-.53,1.46,0,2.65.33,3.58.98s1.61,1.52,2.04,2.6l-2.52,1.18c-.21-.67-.56-1.21-1.08-1.61s-1.19-.6-2.03-.6c-1.12,0-1.96.35-2.53,1.05s-.85,1.61-.85,2.72v2.6c0,1.12.28,2.02.85,2.72s1.41,1.05,2.53,1.05c.9,0,1.61-.22,2.14-.66s.96-1.02,1.27-1.75l2.32,1.23c-.49,1.2-1.21,2.12-2.18,2.76-.97.64-2.16.96-3.56.96h.02Z"
	/>
	<path
		class="url-explained-cls-1"
		d="M581.42,197.79v-14.56h3.05v2.8h.14c.21-.75.63-1.4,1.29-1.96.65-.56,1.56-.84,2.72-.84h.81v2.94h-1.2c-1.21,0-2.14.2-2.79.59-.64.39-.97.97-.97,1.74v9.3h-3.05Z"
	/>
	<path
		class="url-explained-cls-1"
		d="M597.72,198.13c-1.05,0-1.98-.18-2.8-.53s-1.52-.86-2.1-1.53c-.58-.66-1.02-1.47-1.33-2.41s-.46-1.99-.46-3.15.15-2.21.46-3.15.75-1.75,1.33-2.41,1.28-1.17,2.1-1.53c.82-.35,1.75-.53,2.8-.53s2,.19,2.81.56,1.49.89,2.03,1.55.95,1.43,1.22,2.31.41,1.82.41,2.83v1.15h-10v.47c0,1.11.33,2.03.99,2.74s1.61,1.07,2.84,1.07c.9,0,1.65-.19,2.27-.58s1.14-.92,1.57-1.59l1.79,1.77c-.54.9-1.33,1.61-2.35,2.15-1.03.53-2.22.8-3.58.8h0ZM597.72,185.28c-.52,0-1,.09-1.44.28s-.81.45-1.12.78-.55.74-.71,1.2-.25.98-.25,1.54v.2h6.78v-.28c0-1.12-.29-2.02-.87-2.7s-1.37-1.02-2.38-1.02h-.01Z"
	/>
	<path
		class="url-explained-cls-1"
		d="M611.6,197.79c-1.06,0-1.87-.28-2.41-.83s-.81-1.33-.81-2.34v-8.9h-2.27v-2.49h1.23c.5,0,.85-.11,1.05-.34.2-.22.29-.59.29-1.09v-2.55h2.74v3.98h3.05v2.49h-3.05v9.58h2.83v2.49h-2.66,0Z"
	/>
	<path
		class="url-explained-cls-1"
		d="M623.78,197.79v-2.58h2.66v-14.39h-2.66v-2.58h8.51v2.58h-2.69v14.39h2.69v2.58h-8.51Z"
	/>
	<path
		class="url-explained-cls-1"
		d="M636.27,178.25h6.92c1.25,0,2.38.21,3.4.62s1.89,1.02,2.6,1.83c.72.81,1.27,1.83,1.67,3.05.39,1.22.59,2.65.59,4.27s-.2,3.05-.59,4.27-.95,2.24-1.67,3.05c-.72.81-1.59,1.42-2.6,1.83-1.02.41-2.15.62-3.4.62h-6.92v-19.54ZM643.19,194.99c1.46,0,2.63-.46,3.53-1.37.9-.91,1.34-2.26,1.34-4.03v-3.14c0-1.77-.45-3.12-1.34-4.03-.9-.91-2.07-1.37-3.53-1.37h-3.75v13.94h3.75Z"
	/>
	<path
		class="url-explained-cls-2"
		d="M992.02,97.65c0,19.61-55.22,35.57-123.08,35.57h-152.9l-30.81,22.75-30.83-22.75h-152.9c-67.88,0-123.08-15.95-123.08-35.57"
	/>
	<path
		class="url-explained-cls-1"
		d="M386.75,48.71h10.09c1.76,0,3.38.28,4.83.84s2.7,1.4,3.72,2.51,1.82,2.51,2.38,4.18.84,3.62.84,5.85-.28,4.17-.84,5.85-1.36,3.07-2.38,4.18-2.26,1.95-3.72,2.51-3.07.84-4.83.84h-10.09v-26.78.02ZM396.84,70.31c1.74,0,3.11-.49,4.1-1.46,1-.97,1.5-2.53,1.5-4.68v-4.14c0-2.15-.5-3.71-1.5-4.68s-2.37-1.46-4.1-1.46h-4.26v16.42h4.26Z"
	/>
	<path
		class="url-explained-cls-1"
		d="M413.18,55.35h5.68v22.29c0,1.79-.45,3.16-1.34,4.1-.9.95-2.34,1.42-4.33,1.42h-2.99v-4.41h2.99v-23.4h-.01ZM416.02,53.2c-1.15,0-1.99-.26-2.51-.79-.52-.52-.79-1.19-.79-2.01v-.84c0-.82.26-1.49.79-2.01s1.36-.79,2.51-.79,1.99.26,2.51.79.79,1.2.79,2.01v.84c0,.82-.26,1.49-.79,2.01-.52.52-1.36.79-2.51.79Z"
	/>
	<path
		class="url-explained-cls-1"
		d="M424.46,75.48v-26.78h12.66c1.25,0,2.38.21,3.38.63s1.85,1,2.55,1.75c.7.74,1.25,1.64,1.63,2.71s.58,2.22.58,3.47-.19,2.44-.58,3.49c-.38,1.05-.93,1.94-1.63,2.69-.7.74-1.55,1.32-2.55,1.75s-2.12.63-3.38.63h-6.83v9.67h-5.83ZM430.29,60.75h6.14c.87,0,1.55-.22,2.05-.67s.75-1.11.75-1.98v-1.69c0-.87-.25-1.53-.75-1.98-.5-.45-1.18-.67-2.05-.67h-6.14v6.98h0Z"
	/>
	<path
		class="url-explained-cls-1"
		d="M449.32,47.1h5.68v16.76h.23l2.49-3.72,4.03-4.8h6.29l-6.71,7.71,7.48,12.43h-6.75l-4.53-8.52-2.53,2.84v5.68h-5.68v-28.39h0Z"
	/>
	<path
		class="url-explained-cls-1"
		d="M471.45,75.48v-20.14h5.68v3.41h.23c.36-1.07.97-1.99,1.84-2.74s2.06-1.13,3.57-1.13c1.38,0,2.56.35,3.53,1.04s1.67,1.7,2.11,3.03h.11c.18-.56.45-1.09.83-1.59.37-.5.83-.93,1.36-1.29.54-.36,1.14-.65,1.8-.86.66-.22,1.38-.33,2.15-.33,1.94,0,3.43.69,4.47,2.07s1.55,3.35,1.55,5.91v12.62h-5.68v-12.16c0-2.56-.92-3.84-2.76-3.84-.84,0-1.61.24-2.3.73-.69.49-1.04,1.23-1.04,2.22v13.04h-5.68v-12.16c0-2.56-.92-3.84-2.76-3.84-.41,0-.81.06-1.21.17s-.75.3-1.07.56c-.32.26-.58.57-.77.94s-.29.8-.29,1.28v13.04h-5.68v.02Z"
	/>
	<path
		class="url-explained-cls-1"
		d="M505.75,47.1h5.68v11.66h.23c.36-1.05.98-1.96,1.88-2.72.9-.77,2.14-1.15,3.72-1.15,2.07,0,3.64.69,4.7,2.07s1.59,3.35,1.59,5.91v12.62h-5.68v-12.16c0-1.3-.21-2.27-.61-2.9-.41-.63-1.14-.94-2.19-.94-.46,0-.91.06-1.34.17-.44.11-.83.3-1.17.56-.35.26-.62.57-.83.94s-.31.8-.31,1.28v13.04h-5.68v-28.39h0Z"
	/>
	<path
		class="url-explained-cls-1"
		d="M528.92,48.71h13c2.22,0,3.96.63,5.2,1.88s1.86,2.92,1.86,4.99c0,1.02-.13,1.89-.4,2.61s-.63,1.3-1.07,1.76c-.45.46-.97.8-1.57,1.02-.6.22-1.25.34-1.94.36v.23c.64,0,1.31.12,2.01.35.7.23,1.35.59,1.94,1.09s1.08,1.14,1.48,1.94.59,1.76.59,2.92c0,1.05-.17,2.04-.52,2.97-.35.93-.83,1.75-1.44,2.44s-1.34,1.23-2.19,1.63-1.76.59-2.76.59h-14.19v-26.78h0ZM534.75,59.68h5.79c.77,0,1.37-.22,1.8-.65s.65-1.04.65-1.8v-1.15c0-.77-.22-1.37-.65-1.8-.44-.43-1.04-.65-1.8-.65h-5.79v6.06h0ZM534.75,70.57h6.71c.77,0,1.37-.21,1.82-.63s.67-1.02.67-1.78v-1.3c0-.77-.22-1.36-.67-1.78s-1.05-.63-1.82-.63h-6.71v6.14-.02Z"
	/>
	<path
		class="url-explained-cls-1"
		d="M569.08,75.48c-1.02,0-1.87-.32-2.55-.96s-1.11-1.5-1.29-2.57h-.23c-.31,1.3-.99,2.3-2.03,2.97-1.05.68-2.34,1.02-3.88,1.02-2.02,0-3.57-.54-4.64-1.61s-1.61-2.49-1.61-4.25c0-2.12.77-3.69,2.32-4.72s3.65-1.55,6.31-1.55h3.18v-1.27c0-.97-.26-1.75-.77-2.32-.51-.58-1.37-.86-2.57-.86-1.13,0-2.02.24-2.69.73-.67.49-1.21,1.04-1.65,1.65l-3.38-3.01c.82-1.21,1.85-2.15,3.09-2.83s2.92-1.02,5.04-1.02c2.86,0,5.01.63,6.44,1.88s2.15,3.08,2.15,5.49v8.82h1.88v4.41h-3.15.03ZM561.22,71.99c.95,0,1.76-.2,2.44-.61s1.02-1.07,1.02-1.98v-2.36h-2.76c-2.22,0-3.34.75-3.34,2.25v.57c0,.74.23,1.27.69,1.62.46.34,1.11.51,1.96.51h-.01Z"
	/>
	<path
		class="url-explained-cls-1"
		d="M598.58,75.48h-6.75l-5.79-9.86h-.12l-5.64,9.86h-6.29l8.59-13.85-8.17-12.93h6.79l5.22,9.05h.11l5.29-9.05h6.29l-8.25,13.04,8.71,13.73h.01Z"
	/>
	<path
		class="url-explained-cls-1"
		d="M601.84,75.48v-20.14h5.68v3.41h.23c.36-1.07.97-1.99,1.84-2.74.87-.75,2.06-1.13,3.57-1.13,1.38,0,2.56.35,3.53,1.04s1.67,1.7,2.11,3.03h.11c.18-.56.45-1.09.83-1.59.37-.5.83-.93,1.36-1.29.54-.36,1.14-.65,1.8-.86.66-.22,1.38-.33,2.15-.33,1.94,0,3.43.69,4.47,2.07s1.55,3.35,1.55,5.91v12.62h-5.68v-12.16c0-2.56-.92-3.84-2.76-3.84-.84,0-1.61.24-2.3.73-.69.49-1.04,1.23-1.04,2.22v13.04h-5.68v-12.16c0-2.56-.92-3.84-2.76-3.84-.41,0-.81.06-1.21.17s-.75.3-1.07.56c-.32.26-.58.57-.77.94s-.29.8-.29,1.28v13.04h-5.68v.02Z"
	/>
	<path
		class="url-explained-cls-1"
		d="M654.89,58.87c0,1.89-.29,3.67-.86,5.33-.58,1.66-1.32,3.2-2.22,4.62-.91,1.42-1.93,2.69-3.07,3.82s-2.28,2.07-3.43,2.84h-7.94c1.64-1.18,3.11-2.29,4.41-3.36,1.3-1.06,2.44-2.13,3.39-3.2s1.75-2.17,2.36-3.28,1.06-2.31,1.34-3.59l-.35-.12c-.23.51-.5,1.01-.82,1.5s-.72.91-1.19,1.29c-.47.37-1.03.67-1.67.9-.64.23-1.38.34-2.22.34-1.1,0-2.13-.2-3.09-.59-.96-.4-1.79-.95-2.49-1.67s-1.25-1.59-1.65-2.61-.59-2.17-.59-3.45c0-1.38.24-2.65.71-3.8.47-1.15,1.15-2.14,2.03-2.97s1.94-1.48,3.17-1.94,2.61-.69,4.14-.69,3,.25,4.26.75c1.25.5,2.31,1.22,3.17,2.15s1.51,2.05,1.96,3.36c.45,1.3.67,2.76.67,4.37h-.02ZM644.84,61.56c1.28,0,2.28-.35,2.99-1.05s1.07-1.71,1.07-3.01v-.69c0-1.3-.36-2.31-1.07-3.01s-1.71-1.06-2.99-1.06-2.28.35-2.99,1.06-1.07,1.71-1.07,3.01v.69c0,1.3.36,2.31,1.07,3.01s1.71,1.05,2.99,1.05Z"
	/>
	<path
		class="url-explained-cls-1"
		d="M659.05,48.71h10.09c1.76,0,3.38.28,4.83.84s2.7,1.4,3.72,2.51,1.82,2.51,2.38,4.18.84,3.62.84,5.85-.28,4.17-.84,5.85-1.36,3.07-2.38,4.18-2.26,1.95-3.72,2.51-3.07.84-4.83.84h-10.09v-26.78.02ZM669.14,70.31c1.74,0,3.11-.49,4.1-1.46,1-.97,1.5-2.53,1.5-4.68v-4.14c0-2.15-.5-3.71-1.5-4.68s-2.37-1.46-4.1-1.46h-4.26v16.42h4.26Z"
	/>
	<path
		class="url-explained-cls-1"
		d="M704.24,58.87c0,1.89-.29,3.67-.86,5.33-.58,1.66-1.32,3.2-2.22,4.62-.91,1.42-1.93,2.69-3.07,3.82s-2.28,2.07-3.43,2.84h-7.94c1.64-1.18,3.11-2.29,4.41-3.36,1.3-1.06,2.44-2.13,3.39-3.2s1.75-2.17,2.36-3.28,1.06-2.31,1.34-3.59l-.35-.12c-.23.51-.5,1.01-.82,1.5s-.72.91-1.19,1.29c-.47.37-1.03.67-1.67.9-.64.23-1.38.34-2.22.34-1.1,0-2.13-.2-3.09-.59-.96-.4-1.79-.95-2.49-1.67s-1.25-1.59-1.65-2.61-.59-2.17-.59-3.45c0-1.38.24-2.65.71-3.8.47-1.15,1.15-2.14,2.03-2.97s1.94-1.48,3.17-1.94,2.61-.69,4.14-.69,3,.25,4.26.75c1.25.5,2.31,1.22,3.17,2.15s1.51,2.05,1.96,3.36c.45,1.3.67,2.76.67,4.37h-.02ZM694.19,61.56c1.28,0,2.28-.35,2.99-1.05s1.07-1.71,1.07-3.01v-.69c0-1.3-.36-2.31-1.07-3.01s-1.71-1.06-2.99-1.06-2.28.35-2.99,1.06-1.07,1.71-1.07,3.01v.69c0,1.3.36,2.31,1.07,3.01s1.71,1.05,2.99,1.05Z"
	/>
	<path
		class="url-explained-cls-1"
		d="M715.9,59.3c1.43,0,2.47-.27,3.13-.82s.98-1.23.98-2.05v-.27c0-.97-.31-1.75-.94-2.34s-1.51-.88-2.67-.88c-1.07,0-2.08.27-3.03.82s-1.75,1.34-2.42,2.36l-3.61-3.38c.51-.66,1.06-1.27,1.65-1.82s1.25-1.02,2-1.42c.74-.4,1.57-.7,2.49-.92s1.96-.33,3.11-.33c1.43,0,2.73.17,3.89.5,1.16.33,2.16.81,2.99,1.44.83.63,1.47,1.38,1.92,2.24.45.87.67,1.84.67,2.92,0,.84-.13,1.61-.4,2.3s-.64,1.29-1.11,1.8-1.02.93-1.63,1.25-1.27.54-1.96.67v.23c.79.15,1.53.4,2.21.75s1.27.79,1.76,1.32c.5.54.89,1.17,1.17,1.9s.42,1.55.42,2.47c0,1.2-.24,2.29-.73,3.26s-1.18,1.8-2.07,2.49c-.9.69-1.97,1.22-3.22,1.59-1.25.37-2.63.56-4.14.56-1.36,0-2.56-.14-3.61-.42s-1.96-.66-2.74-1.13c-.78-.47-1.46-1.02-2.03-1.63-.58-.61-1.08-1.27-1.52-1.96l4.26-3.3c.59,1.1,1.31,2,2.17,2.7s2.01,1.05,3.47,1.05c1.3,0,2.32-.33,3.05-.98s1.09-1.54,1.09-2.67v-.23c0-1.1-.42-1.92-1.25-2.47s-1.98-.82-3.43-.82h-2.42v-4.8h2.49v.02Z"
	/>
	<path
		class="url-explained-cls-1"
		d="M740.53,75.94c-1.59,0-3-.25-4.26-.75-1.25-.5-2.31-1.21-3.16-2.15-.86-.93-1.51-2.05-1.96-3.36-.45-1.3-.67-2.76-.67-4.37,0-1.87.29-3.64.86-5.31.58-1.67,1.32-3.22,2.22-4.64.91-1.42,1.93-2.69,3.07-3.82s2.28-2.07,3.43-2.84h7.94c-1.64,1.18-3.11,2.3-4.41,3.36s-2.44,2.13-3.39,3.2-1.75,2.17-2.38,3.28-1.07,2.31-1.32,3.59l.34.12c.23-.51.5-1.01.83-1.5.32-.49.72-.91,1.19-1.29.47-.37,1.03-.67,1.67-.9.64-.23,1.38-.34,2.23-.34,1.1,0,2.13.2,3.09.59.96.4,1.79.95,2.49,1.67s1.25,1.59,1.65,2.63.59,2.18.59,3.43c0,1.38-.24,2.65-.71,3.8-.47,1.15-1.15,2.14-2.03,2.97s-1.94,1.48-3.16,1.94c-1.23.46-2.61.69-4.14.69h-.01ZM740.53,71.45c1.28,0,2.28-.35,2.99-1.05.72-.7,1.07-1.71,1.07-3.01v-.69c0-1.3-.36-2.31-1.07-3.01-.72-.7-1.71-1.05-2.99-1.05s-2.28.35-2.99,1.05c-.72.7-1.07,1.71-1.07,3.01v.69c0,1.3.36,2.31,1.07,3.01.71.7,1.71,1.05,2.99,1.05Z"
	/>
	<path
		class="url-explained-cls-1"
		d="M754.84,75.48v-26.78h17.76v5.18h-11.93v5.45h10.17v5.18h-10.17v10.97h-5.83Z"
	/>
	<path
		class="url-explained-cls-1"
		d="M787.25,75.48v-5.14h-11.78v-4.95l10.43-16.69h6.83v17.15h3.38v4.49h-3.38v5.14h-5.49.01ZM780.08,65.85h7.17v-11.2h-.38l-6.79,11.2Z"
	/>
	<path
		class="url-explained-cls-1"
		d="M800.29,75.48v-26.78h12.66c1.25,0,2.38.21,3.38.63s1.85,1,2.55,1.75c.7.74,1.25,1.64,1.63,2.71s.58,2.22.58,3.47-.19,2.44-.58,3.49c-.38,1.05-.93,1.94-1.63,2.69-.7.74-1.55,1.32-2.55,1.75s-2.12.63-3.38.63h-6.83v9.67h-5.83,0ZM806.12,60.75h6.14c.87,0,1.55-.22,2.05-.67s.75-1.11.75-1.98v-1.69c0-.87-.25-1.53-.75-1.98-.5-.45-1.18-.67-2.05-.67h-6.14v6.98h0Z"
	/>
	<path
		class="url-explained-cls-1"
		d="M837.46,55.35h5.29l-7.75,23.25c-.51,1.56-1.23,2.71-2.17,3.45-.93.74-2.27,1.11-4.01,1.11h-3.53v-4.41h3.8l.69-2.22-7.06-21.18h5.64l2.95,9.4,1.46,5.83h.23l1.5-5.83,2.95-9.4h.01Z"
	/>
	<path
		class="url-explained-cls-1"
		d="M851.46,48.71v16.42c0,1.89.37,3.31,1.11,4.24s1.98,1.4,3.72,1.4,2.98-.47,3.72-1.4,1.11-2.35,1.11-4.24v-16.42h5.68v15.8c0,1.97-.19,3.68-.56,5.12s-.98,2.63-1.82,3.57-1.93,1.62-3.26,2.07-2.95.67-4.87.67-3.54-.22-4.87-.67-2.42-1.14-3.26-2.07-1.45-2.12-1.82-3.57-.56-3.15-.56-5.12v-15.8h5.68Z"
	/>
	<path
		class="url-explained-cls-1"
		d="M890.4,82.54h-3.61c-2.07,0-3.58-.49-4.53-1.46s-1.42-2.38-1.42-4.22v-1.11c-2.86-.51-5.13-1.91-6.81-4.2-1.68-2.29-2.51-5.44-2.51-9.46,0-2.28.28-4.28.84-6,.56-1.73,1.36-3.17,2.38-4.33s2.26-2.04,3.72-2.63c1.46-.59,3.07-.88,4.83-.88s3.38.29,4.83.88c1.46.59,2.7,1.46,3.72,2.63,1.02,1.16,1.82,2.61,2.38,4.33.56,1.73.84,3.73.84,6,0,3.89-.79,6.97-2.36,9.25s-3.71,3.71-6.43,4.3v2.15h4.1v4.76h.03ZM883.3,70.76c1.76,0,3.14-.58,4.12-1.73s1.48-2.8,1.48-4.95v-3.99c0-2.15-.49-3.8-1.48-4.95s-2.36-1.73-4.12-1.73-3.14.58-4.12,1.73c-.99,1.15-1.48,2.8-1.48,4.95v3.99c0,2.15.49,3.8,1.48,4.95.98,1.15,2.36,1.73,4.12,1.73Z"
	/>
	<path
		class="url-explained-cls-1"
		d="M904.59,75.48v-10.47l-9.17-16.3h6.52l5.75,10.66h.08l5.52-10.66h6.33l-9.17,16.26v10.51h-5.87,0Z"
	/>
	<path
		class="url-explained-cls-1"
		d="M922.24,47.1h5.68v11.66h.23c.36-1.05.98-1.96,1.88-2.72.9-.77,2.14-1.15,3.72-1.15,2.07,0,3.64.69,4.7,2.07s1.59,3.35,1.59,5.91v12.62h-5.68v-12.16c0-1.3-.21-2.27-.61-2.9-.41-.63-1.14-.94-2.19-.94-.46,0-.91.06-1.34.17-.44.11-.83.3-1.17.56-.35.26-.62.57-.83.94s-.31.8-.31,1.28v13.04h-5.68v-28.39h.01Z"
	/>
	<path
		class="url-explained-cls-1"
		d="M961.44,64.51h-10.2v10.97h-5.83v-26.78h5.83v10.63h10.2v-10.63h5.83v26.78h-5.83v-10.97Z"
	/>
	<path
		class="url-explained-cls-1"
		d="M983.16,75.48v-5.14h-11.78v-4.95l10.43-16.69h6.83v17.15h3.38v4.49h-3.38v5.14h-5.49.01ZM975.99,65.85h7.17v-11.2h-.38l-6.79,11.2Z"
	/>
	<path class="url-explained-cls-1" d="M662.9,201.96l8.89-26.59h3.64l-8.89,26.59h-3.64Z" />
</svg>
