<svg width="105" height="40" xmlns="http://www.w3.org/2000/svg" xmlns:xlink="http://www.w3.org/1999/xlink"><defs><path d="M5.96 9.175c-.286.367-.602.623-.948.769a2.68 2.68 0 0 1-1.05.219 3.73 3.73 0 0 1-1.502-.29 3.22 3.22 0 0 1-1.126-.8 3.54 3.54 0 0 1-.702-1.197 4.393 4.393 0 0 1-.245-1.482c0-.543.082-1.048.245-1.513.163-.465.397-.87.702-1.217.306-.347.681-.618 1.126-.815a3.674 3.674 0 0 1 1.503-.296c.373 0 .735.057 1.085.169.35.112.665.276.947.494.282.217.514.485.698.804.183.32.295.686.336 1.1H5.5c-.095-.407-.279-.713-.55-.916-.272-.204-.601-.306-.988-.306-.36 0-.666.07-.917.209-.251.14-.455.326-.611.56-.157.235-.27.501-.342.8a3.98 3.98 0 0 0-.107.927c0 .305.036.603.107.891.072.289.185.549.342.78.156.23.36.415.61.555.252.139.558.209.918.209.53 0 .939-.135 1.227-.403.289-.268.457-.657.504-1.166h-1.61V6.068h3.057V10H6.122l-.163-.825zm4.074-.52h1.426c.231 0 .455-.037.672-.112a1.48 1.48 0 0 0 .581-.372c.17-.173.306-.399.408-.677.101-.278.152-.618.152-1.019a4.24 4.24 0 0 0-.107-.993 1.981 1.981 0 0 0-.351-.759 1.559 1.559 0 0 0-.647-.484c-.268-.112-.6-.168-.993-.168h-1.141v4.584zm-1.6-5.928h3.138c.469 0 .905.074 1.31.224.403.15.753.373 1.048.672.296.299.527.672.693 1.12.166.449.25.975.25 1.58 0 .53-.068 1.018-.204 1.466a3.228 3.228 0 0 1-.616 1.162 2.888 2.888 0 0 1-1.03.769c-.41.187-.894.28-1.45.28H8.434V2.727zm9.148 3.422h1.243c.183 0 .36-.013.53-.04.17-.028.319-.08.448-.158a.86.86 0 0 0 .31-.331c.079-.143.118-.33.118-.56 0-.231-.04-.418-.117-.56a.86.86 0 0 0-.31-.332 1.233 1.233 0 0 0-.45-.158 3.35 3.35 0 0 0-.529-.04h-1.243v2.18zm-1.599-3.422h3.28c.455 0 .842.066 1.161.198.32.133.58.308.78.525.2.217.346.465.438.744a2.766 2.766 0 0 1 0 1.727 2.009 2.009 0 0 1-.438.748c-.2.217-.46.392-.78.525-.319.132-.706.198-1.16.198h-1.682V10h-1.599V2.727zm8.394 3.29h1.752c.367 0 .642-.082.825-.245.184-.162.275-.427.275-.794 0-.353-.091-.61-.275-.77-.183-.159-.458-.239-.825-.239h-1.752v2.048zm-1.6-3.29H26.7c.326 0 .62.052.882.158.261.105.485.25.672.432.187.184.33.396.428.637.098.241.148.501.148.78 0 .427-.09.797-.27 1.11-.18.312-.474.55-.882.713v.02a1.234 1.234 0 0 1 .805.647c.082.153.141.321.178.504.038.184.063.367.077.55.007.116.013.252.02.408.007.156.019.316.036.479.017.163.044.317.081.463.038.146.094.27.168.372h-1.599a2.82 2.82 0 0 1-.163-.825c-.02-.32-.05-.625-.092-.917-.054-.38-.17-.659-.346-.835-.176-.177-.465-.265-.866-.265h-1.6V10h-1.598V2.727z" id="a"/><path d="M5.908 15.104c-.108-.517-.348-.904-.718-1.162-.37-.258-.81-.387-1.319-.387-.435 0-.806.082-1.115.245a2.201 2.201 0 0 0-.764.657c-.2.275-.349.589-.444.942-.095.353-.142.72-.142 1.1 0 .414.047.807.142 1.177.095.37.243.692.444.967.2.276.456.495.769.658.312.162.686.244 1.12.244.32 0 .603-.053.85-.158a1.925 1.925 0 0 0 1.065-1.105c.102-.258.163-.537.184-.835h.967c-.095.916-.41 1.63-.947 2.139-.537.51-1.27.764-2.2.764-.564 0-1.056-.097-1.477-.29a2.901 2.901 0 0 1-1.05-.8 3.435 3.435 0 0 1-.626-1.202 5.129 5.129 0 0 1-.209-1.488c0-.53.075-1.027.224-1.492.15-.465.369-.87.657-1.217.289-.347.649-.62 1.08-.82.431-.2.925-.3 1.482-.3.38 0 .74.05 1.08.152.34.102.642.251.907.448.264.197.485.443.662.739.176.295.292.636.346 1.024h-.968zm2.73 2.455c0 .319.043.602.128.85s.202.455.351.622c.15.166.324.293.525.382.2.088.412.132.636.132.225 0 .437-.044.637-.132.2-.089.375-.216.525-.382a1.78 1.78 0 0 0 .351-.622 2.62 2.62 0 0 0 .128-.85c0-.32-.043-.603-.128-.851a1.836 1.836 0 0 0-.351-.627 1.497 1.497 0 0 0-.525-.387 1.561 1.561 0 0 0-.637-.132c-.224 0-.436.044-.636.132-.2.089-.375.218-.525.387-.15.17-.266.38-.351.627a2.62 2.62 0 0 0-.128.85zm-.916 0c0-.388.054-.75.163-1.085.108-.336.271-.628.489-.876.217-.248.485-.444.804-.586.32-.143.686-.214 1.1-.214.421 0 .79.071 1.106.214.315.142.582.338.8.586.217.248.38.54.488.876.109.336.163.697.163 1.085 0 .387-.054.747-.163 1.08a2.465 2.465 0 0 1-.489.87 2.26 2.26 0 0 1-.8.581 2.72 2.72 0 0 1-1.105.209c-.414 0-.78-.07-1.1-.209a2.25 2.25 0 0 1-.804-.58 2.465 2.465 0 0 1-.49-.872 3.46 3.46 0 0 1-.162-1.08zm6.132-2.639h.815v.774h.02c.394-.597.961-.896 1.701-.896.326 0 .622.068.887.204.265.136.451.366.56.692.177-.285.41-.506.698-.662.288-.156.606-.234.952-.234.265 0 .505.029.718.087.214.057.398.147.55.27.153.122.272.28.357.473.085.194.127.426.127.698v3.86h-.865v-3.453a2.45 2.45 0 0 0-.041-.458.936.936 0 0 0-.153-.372.763.763 0 0 0-.31-.25 1.235 1.235 0 0 0-.515-.091c-.428 0-.764.122-1.009.367-.244.244-.366.57-.366.978v3.28h-.866v-3.454c0-.17-.016-.326-.046-.468a.994.994 0 0 0-.158-.372.738.738 0 0 0-.3-.244 1.164 1.164 0 0 0-.484-.087c-.252 0-.467.05-.647.153a1.466 1.466 0 0 0-.683.81c-.05.152-.076.28-.076.382v3.28h-.866V14.92zm8.72 0h.866v.713h.02c.143-.292.367-.504.672-.636a2.51 2.51 0 0 1 1.009-.199c.407 0 .762.075 1.064.224.303.15.554.352.754.606.2.255.352.549.454.881a3.6 3.6 0 0 1 .152 1.06c0 .373-.049.726-.147 1.06a2.494 2.494 0 0 1-.449.87c-.2.248-.451.443-.753.586a2.446 2.446 0 0 1-1.055.214 2.603 2.603 0 0 1-.906-.173 1.851 1.851 0 0 1-.443-.25 1.395 1.395 0 0 1-.352-.392h-.02v2.71h-.866V14.92zm4.075 2.588c0-.245-.033-.484-.097-.719a1.938 1.938 0 0 0-.296-.626 1.448 1.448 0 0 0-.509-.438 1.547 1.547 0 0 0-.728-.163c-.292 0-.54.058-.744.173a1.49 1.49 0 0 0-.5.453 1.895 1.895 0 0 0-.28.637 3.054 3.054 0 0 0 .006 1.472c.061.241.158.453.29.637.133.183.304.33.515.443.21.112.465.168.764.168.298 0 .548-.058.748-.173.2-.116.362-.268.484-.459.122-.19.21-.407.265-.652.054-.244.082-.495.082-.753zm1.986-4.595h.866v7.274h-.866v-7.274zm3.127 1.06h-.866v-1.06h.866v1.06zm-.866.947h.866v5.267h-.866V14.92zm6.876 5.246c-.149.089-.356.133-.62.133-.225 0-.403-.063-.536-.189-.132-.125-.198-.33-.198-.616-.238.285-.515.49-.83.616a2.744 2.744 0 0 1-1.024.189c-.238 0-.464-.027-.678-.082a1.575 1.575 0 0 1-.555-.254 1.222 1.222 0 0 1-.372-.454 1.525 1.525 0 0 1-.137-.677c0-.299.05-.543.153-.734.101-.19.236-.344.402-.463.166-.119.356-.209.57-.27.214-.061.433-.112.657-.153.238-.047.464-.083.678-.107.214-.024.402-.057.565-.102a.942.942 0 0 0 .387-.193c.095-.085.143-.209.143-.372a.864.864 0 0 0-.107-.458.734.734 0 0 0-.275-.265 1.118 1.118 0 0 0-.377-.122c-.14-.02-.277-.031-.413-.031-.366 0-.672.07-.916.209-.245.139-.377.402-.398.79h-.866a1.87 1.87 0 0 1 .204-.826c.122-.224.285-.406.49-.545.203-.14.435-.24.697-.3.261-.061.542-.092.84-.092.238 0 .474.017.708.05.235.035.447.104.637.21.19.105.343.253.458.443.116.19.174.438.174.743v2.71c0 .204.011.353.035.448.024.095.104.143.24.143a.857.857 0 0 0 .264-.05v.671zm-1.405-2.7c-.109.082-.252.142-.428.18a6.529 6.529 0 0 1-.555.09c-.194.025-.39.052-.586.082-.197.03-.374.08-.53.148a.964.964 0 0 0-.382.29c-.098.126-.147.297-.147.515 0 .142.028.263.086.361a.722.722 0 0 0 .224.24.94.94 0 0 0 .321.132c.122.027.251.041.387.041.285 0 .53-.04.734-.117.203-.078.37-.177.499-.296.129-.118.224-.247.285-.387a.979.979 0 0 0 .092-.392v-.886zm2.21-2.546h.815v.836h.02c.36-.639.931-.958 1.712-.958.346 0 .635.048.866.143.23.095.417.227.56.397.143.17.243.372.3.606.058.234.087.494.087.78v3.463h-.866V16.62c0-.326-.095-.584-.285-.774-.19-.19-.452-.285-.784-.285-.265 0-.494.04-.688.122a1.29 1.29 0 0 0-.484.347c-.129.149-.226.324-.29.524-.065.2-.097.42-.097.657v2.975h-.866V14.92zm6.866 0h1.05v.764h-1.05v3.27c0 .102.009.184.026.245.017.06.049.108.096.142a.428.428 0 0 0 .199.066c.085.01.195.016.331.016h.397v.764h-.662a3.11 3.11 0 0 1-.575-.046.845.845 0 0 1-.387-.168.718.718 0 0 1-.22-.347 2.001 2.001 0 0 1-.07-.59v-3.352h-.897v-.764h.896v-1.579h.866v1.58z" id="b"/></defs><g fill-rule="nonzero" fill="none"><rect stroke="#EEE" stroke-width="1.132" fill="#FFF" x=".566" y=".566" width="103.848" height="38.483" rx="5.942"/><g fill="#000"><path d="M21.788 5.942l.45 1.454h1.453l-1.176.899.45 1.453-1.177-.899-1.176.9.45-1.454-1.177-.899h1.454zM21.788 29.867l.45 1.454h1.453l-1.176.898.45 1.454-1.177-.898-1.176.898.45-1.454-1.177-.898h1.454zM27.77 8.117l.448 1.454h1.455l-1.177.899.45 1.453-1.177-.898-1.176.898.45-1.453-1.177-.899h1.454zM32.605 23.77l.449 1.453h1.454l-1.176.899.45 1.453-1.177-.898-1.176.898.449-1.453-1.176-.899h1.454zM33.75 17.905l.45 1.453h1.454l-1.177.899.45 1.454-1.176-.898-1.177.898.45-1.454-1.177-.899h1.454zM9.826 17.905l.45 1.453h1.453l-1.176.899.45 1.454-1.177-.898-1.176.898.45-1.454-1.177-.899h1.454zM10.817 23.77l.449 1.453h1.454l-1.176.899.449 1.453-1.176-.898-1.177.898.45-1.453-1.177-.899h1.455zM32.605 11.885l.449 1.454h1.454l-1.176.898.45 1.454-1.177-.898-1.176.898.449-1.454-1.176-.898h1.454zM11.312 11.885l.449 1.454h1.454l-1.176.898.449 1.454-1.176-.898-1.176.898.449-1.454-1.176-.898h1.454zM28.857 28.78l.449 1.453h1.454l-1.177.899.45 1.453-1.176-.898-1.176.898.45-1.453-1.177-.9h1.454zM15.807 8.117l.45 1.454h1.453l-1.176.899.45 1.453-1.177-.898-1.176.898.45-1.453-1.177-.899h1.454zM14.72 28.78l.449 1.454h1.454l-1.176.898.449 1.453-1.176-.897-1.176.897.449-1.453-1.176-.898h1.453z"/></g><path d="M24.901 18.952h-.424v-1.316c0-1.533-1.207-2.78-2.689-2.78s-2.688 1.247-2.688 2.78v1.316h-.424c-.469 0-.85.393-.85.878v3.511c0 .485.381.878.85.878H24.9c.469 0 .849-.393.849-.878v-3.51c0-.486-.38-.879-.849-.879zm-1.84 0h-2.546v-1.316c0-.727.571-1.317 1.273-1.317s1.274.59 1.274 1.317v1.316z" fill="#000"/><g fill="#000"><g transform="translate(45.274 6.055)"><use xlink:href="#a"/><use xlink:href="#a"/></g><g transform="translate(45.274 6.055)"><use xlink:href="#b"/><use xlink:href="#b"/></g></g></g></svg>