<?xml version="1.0" encoding="UTF-8"?><svg id="Flame" xmlns="http://www.w3.org/2000/svg" viewBox="0 0 1700 450"><defs><style>.cls-1{fill:#0f1b2e;}.cls-2{fill:#172941;}.cls-3{fill:#eeebe3;}.cls-4{fill:#5b8392;}.cls-5{fill:#d62f2d;}</style></defs><polygon class="cls-3" points="1697.41 450 35.76 450 438.51 253.73 980.67 385.5 1621.09 179.69 1697.41 450"/><polygon class="cls-4" points="1668.03 450 0 450 887.19 370.05 1095.92 205.34 1668.03 450"/><polygon class="cls-2" points="1596.31 450 35.76 450 875.33 388.26 905.91 337.76 1093.85 201.53 1596.31 450"/><rect class="cls-2" x="336.76" y="126.25" width="204.56" height="259.25"/><rect class="cls-4" x="348.63" y="137.83" width="180.81" height="236.09"/><rect class="cls-2" x="352.07" y="140.72" width="173.95" height="230.31"/><polygon class="cls-1" points="379.68 166.77 352.07 371.03 352.07 140.72 526.01 140.72 379.68 166.77"/><rect class="cls-4" x="506.77" y="179.69" width="16.25" height="27.37"/><rect class="cls-4" x="506.77" y="303.24" width="16.25" height="27.37"/><polygon class="cls-1" points="357.59 385.5 357.59 450 371.87 450 371.87 395.21 511.22 395.21 511.22 450 526.01 450 526.01 385.5 357.59 385.5"/><circle class="cls-1" cx="452.71" cy="268.68" r="22.77"/><rect class="cls-1" x="513.19" y="303.24" width="16.25" height="27.37"/><rect class="cls-1" x="513.19" y="179.69" width="16.25" height="27.37"/><rect class="cls-1" x="387.15" y="254.15" width="105.78" height="5.05" transform="translate(310.38 -235.98) rotate(45)"/><rect class="cls-1" x="387.15" y="254.15" width="105.78" height="5.05" transform="translate(932.69 127.02) rotate(135)"/><circle class="cls-5" cx="440.04" cy="253.85" r="22.77"/><rect class="cls-5" x="387.15" y="251.32" width="105.78" height="5.05" transform="translate(308.38 -236.8) rotate(45)"/><rect class="cls-5" x="387.15" y="251.32" width="105.78" height="5.05" transform="translate(930.69 122.19) rotate(135)"/><circle class="cls-5" cx="1267.08" cy="396" r="6.58"/><circle class="cls-5" cx="1291.1" cy="396" r="6.58"/></svg>