<?xml version="1.0" encoding="UTF-8"?><svg xmlns="http://www.w3.org/2000/svg" viewBox="0 0 1700 450"><defs><style>.cls-1{fill:var(--color-illustration-navy);}.cls-2{fill:var(--color-illustration-cream);}.cls-3{fill:var(--color-illustration-slate);}.cls-4{fill:var(--color-accent);}</style></defs><g id="bg"><path class="cls-2" d="M850,157.41C403.33,157.41,37.14,286.26,2.59,450h1694.82c-34.55-163.74-400.75-292.59-847.41-292.59Z"/><circle class="cls-2" cx="1006.91" cy="265.93" r="135.31"/><ellipse class="cls-2" cx="1321.82" cy="276.03" rx="155.36" ry="123.78"/><ellipse class="cls-2" cx="401.69" cy="253.71" rx="107.49" ry="123.78"/><circle class="cls-4" cx="1157.99" cy="176.15" r="99.88"/><ellipse class="cls-2" cx="217.28" cy="303.84" rx="167.52" ry="127.69"/><ellipse class="cls-2" cx="698.33" cy="218.42" rx="260.99" ry="168.8"/></g><g id="Flame"><path class="cls-1" d="M537.84,450l-122.8-115.36c-3.67-2.76-40.23,15.78-79.56-49.28l-87.68,3.78-54.25-65.59-32.96,30.35-42.11,32.75c0,111.68-89.36,109.15-95.42,163.35"/><path class="cls-1" d="M1477.2,334.26c-3.67-2.76-40.23,15.78-79.56-49.28l-54.59-78.27-87.34,16.46-92.8-48.28-209.26,42.76c-.47-.84-25.01,121.04-25.47,120.09l-49.6-34.44-13.82-26.63-26.32-50.19-14-27.37-31.13-24.54-24.2-37.65-48.76-76.65-19.02-30.13-.44,32.7-.08,109.52h8.11s-.16,1.08-.16,1.08l-40.19.08c1.39,1.27,2.09,2.07,2.37,3.82l36.23.04c-.03.27-.14,1.85-.14,1.85h-35.72c-.04.52.81,1.22,1.53,1.22l32.22.02-.33.48-32-.02.37.57,31.88-.04.16.87-31.78-.04.93.93,26.65-.03h4.05s-.06,38.7-.06,38.7c0,.47-.57,1.47-.23,1.64l-24.72.27-3.56.15v-37.38h26.47v-1.05h-27.55s.03,38.44.03,38.44l-16.62.05-4.99,37.64-1.18,10.01-4.14,32.67-.52,3.86-6.94,60.72c-.31,2.74-2.62,5.21-3.58,7.68l-5.31,13.67c-.74,1.9-1.56,3.52-2.13,5.55l-6.55,23.12-2.19,4.75-8.88,7.87-4.81,4.28-11.13,10.41-5.06,3.74,1008.64-.37-122.8-115.36Z"/><g id="YC4Nyf"><path class="cls-3" d="M707.04,179.24h-35.72c-.04.52.81,1.22,1.53,1.22l32.22.02-.33.49-32-.02.37.57,31.88-.04.16.87-31.78-.04.93.93,26.65-.03,4.06-.37-.06,39.07c0,.47,0,1.25,0,1.64l-24.95.27-4.08.17.31-7.13.07-26.81-.19-3.65,26.47-.02c-4.18-1.18-7.81-.38-12.15-.6l-6.48-.12-8.58.12.03,38.21-16.62.05-4.99,37.64-1.18,10.01-4.14,32.67-.52,3.86-6.94,60.72c-.31,2.74-2.62,5.21-3.58,7.68l-5.31,13.67c-.74,1.9-1.56,3.52-2.13,5.55l-6.55,23.12-2.19,4.75-8.88,7.87-4.81,4.28-11.13,10.41-5.06,3.74h-175.89s27.23-22.42,27.23-22.42c4.64-3.53,32.09-11.28,35.49-15.78l11.65-12.48,12.58-8.21c4.09-4.15,8.75-8.04,11.61-13.03l8.07-14.07,11.67-21.64,16.33-21.3,30.51-92.16,31.77-35.59c2.98-6.01,1.19-12.95,5.11-18.4l9.45-8.34,19.54-51.57,12.42-12.17,41.72-73.43c.63.66.72.76.71.75l-.44,32.7-.08,109.52,8.21-.04-.25,1.12-40.19.08c1.39,1.27,2.09,2.07,2.37,3.82l37.06.04"/><polygon class="cls-1" points="683.7 190.82 683.69 220.66 680.47 220.68 680.47 187.76 697.64 187.77 697.51 190.78 683.7 190.82"/></g><rect class="cls-4" x="683.7" y="190.82" width="13.94" height="29.86"/><polygon class="cls-3" points="912.08 326.21 953.66 217.29 970.01 289.29 960.8 315.4 970.01 326.21 970.01 340.74 941.05 394.5 926.16 405.79 930.08 433.66 906.28 399.87 922.4 349.96 912.08 326.21"/><polygon class="cls-3" points="1343.06 206.43 1285.23 255.92 1270.74 253.66 1270.74 242.34 1255.72 222.89 1343.06 206.43"/><path class="cls-3" d="M1477.2,334s-37.02,32.66-30.44,57.68c-7.57-7.57-7.57-51.03-7.57-51.03,0,0,13.47,1.83,38.01-6.66Z"/><path class="cls-3" d="M239.23,298.49l-.05,23.39,7.99,20.26,52.51,24.7c-.74,1.9-4.01,19.68,28.25,48.17l10.62,34.62-75.83-31.37-37.07,31.74H49.76s27.23-22.42,27.23-22.42c4.64-3.53,32.09-11.28,35.49-15.78l24.24-20.69c4.09-4.15,31.35-48.74,31.35-48.74l25.5-119.57,45.68,75.68Z"/></g></svg>