<?xml version="1.0" encoding="UTF-8"?><svg id="Flame" xmlns="http://www.w3.org/2000/svg" viewBox="0 0 1700 450"><defs><style>.cls-1{fill:#0f1b2e;}.cls-2{fill:#172941;}.cls-3{fill:#eeebe3;}.cls-4{fill:#5b8392;}.cls-5{fill:#d62f2d;}</style></defs><rect class="cls-2" x="369.19" y="84.36" width="104.04" height="144.07"/><polygon class="cls-3" points="557.72 228.43 473.23 228.43 473.23 91.52 518.85 27.59 557.72 91.52 557.72 228.43"/><rect class="cls-1" x="348.6" y="228.43" width="261.94" height="8.91"/><rect class="cls-1" x="354.89" y="237.34" width="224.36" height="8.91"/><rect class="cls-1" x="290.27" y="318.73" width="153.87" height="8.91" transform="translate(690.38 -44.03) rotate(90)"/><rect class="cls-1" x="325.11" y="318.73" width="153.87" height="8.91" transform="translate(725.22 -78.86) rotate(90)"/><rect class="cls-1" x="364.17" y="318.73" width="153.87" height="8.91" transform="translate(764.28 -117.92) rotate(90)"/><rect class="cls-1" x="394.59" y="318.73" width="153.87" height="8.91" transform="translate(794.7 -148.34) rotate(90)"/><rect class="cls-1" x="434.08" y="318.73" width="153.87" height="8.91" transform="translate(834.2 -187.84) rotate(90)"/><rect class="cls-1" x="477.72" y="318.73" width="153.87" height="8.91" transform="translate(877.83 -231.47) rotate(90)"/><rect class="cls-5" x="506.57" y="168.04" width="21.82" height="60.4"/><rect class="cls-1" x="228.68" y="328.28" width="211.11" height="3.65" transform="translate(-127.34 417.44) rotate(-55.36)"/><rect class="cls-1" x="209.1" y="329.49" width="199.4" height="3.65" transform="translate(-139.31 397.04) rotate(-55.36)"/><rect class="cls-1" x="192.96" y="276.37" width="228.68" height="3.65" transform="translate(-96.26 372.88) rotate(-55.36)"/><rect class="cls-1" x="261.22" y="400.11" width="24.21" height="3.84"/><rect class="cls-1" x="268.38" y="389.29" width="24.21" height="3.84"/><rect class="cls-1" x="275.54" y="379.38" width="24.21" height="3.84"/><rect class="cls-1" x="282.7" y="367.92" width="24.21" height="3.84"/><rect class="cls-1" x="290.34" y="355.19" width="24.21" height="3.84"/><rect class="cls-1" x="299.09" y="343.73" width="24.21" height="3.84"/><rect class="cls-1" x="304.91" y="334.65" width="24.21" height="3.84"/><rect class="cls-1" x="313.28" y="323.18" width="24.21" height="3.84"/><rect class="cls-1" x="319.02" y="314.9" width="24.21" height="3.84"/><rect class="cls-1" x="325.38" y="304.72" width="24.21" height="3.84"/><rect class="cls-1" x="331.12" y="294.06" width="26.68" height="3.84"/><rect class="cls-1" x="339.48" y="284.83" width="25.23" height="3.84"/><rect class="cls-1" x="346.54" y="276.08" width="22.53" height="3.84"/><rect class="cls-1" x="352.6" y="266.37" width="24.21" height="3.84"/><rect class="cls-1" x="359.55" y="256.66" width="24.21" height="3.84"/><rect class="cls-1" x="228.59" y="377.56" width="55.12" height="2.86" transform="translate(635.14 122.84) rotate(90)"/><rect class="cls-1" x="241.06" y="358.99" width="58.17" height="2.86" transform="translate(630.56 90.28) rotate(90)"/><rect class="cls-1" x="254.72" y="339.47" width="57.87" height="2.86" transform="translate(624.55 57.25) rotate(90)"/><rect class="cls-1" x="274.16" y="311.57" width="55.78" height="2.86" transform="translate(615.05 10.96) rotate(90)"/><rect class="cls-1" x="284.32" y="295.81" width="57.91" height="2.86" transform="translate(610.52 -16.03) rotate(90)"/><rect class="cls-1" x="304.5" y="269.3" width="54.31" height="2.86" transform="translate(602.39 -60.93) rotate(90)"/><rect class="cls-1" x="312.02" y="255.55" width="59.56" height="2.86" transform="translate(598.77 -84.82) rotate(90)"/><polygon class="cls-3" points="1700 450 0 450 1148 246.24 1700 450"/><polygon class="cls-1" points="486.02 91.52 348.6 91.52 398.6 17.02 536.02 17.02 486.02 91.52"/><polygon class="cls-1" points="570.77 91.52 553.88 91.52 518.67 31.28 536.02 17.02 570.77 91.52"/><polygon class="cls-4" points="1148 246.24 1222.58 345.65 1347.1 318.75 1148 246.24"/><polygon class="cls-2" points="2.59 450 67.39 438.32 904.52 414.38 1121.38 450 2.59 450"/><polygon class="cls-4" points="1480.37 450 1121.38 450 904.52 414.38 1347.1 318.75 1480.37 450"/></svg>