<?xml version="1.0" encoding="UTF-8"?>
<svg id="Layer_1" xmlns="http://www.w3.org/2000/svg" version="1.1" viewBox="0 0 1080 1080">
	<!-- Generator: Adobe Illustrator 29.8.6, SVG Export Plug-In . SVG Version: 2.1.1 Build 1)  -->
	<defs>
		<style>
			.st0 {
				fill: var(--color-primary);
			}
			.st1 {
				fill: var(--color-accent);
			}
		</style>
	</defs>
	<path
		class="st0"
		d="M67.5,550.2l203.2,104.1c15.2-71.7,75.5-127.1,150.6-131.5,12.7-.7,25.2,0,37.2,2.1-16.7,13-33.9,32.2-31.5,51.1L990.6,151.4l-412.8,464.2c9.7,19.7,15.7,41.7,17,65.2,2.7,45.7-12.9,88.2-40.2,120.1l189.9,99.6L1012.5,132.5,67.5,550.2Z"
	/>
	<path
		class="st1"
		d="M244.9,947.5c-2.1-11.2-7.6-23.3-9.8-34.3-8.2-40.6-2.4-88.7,19.2-124.5,18.7-31.1,44.3-63.4,73.1-85.2,7.5-5.7,15.3-11,23.4-16,15.1-9.2,19-8.7,31-22.5-6.7-1.5-13.5-2.4-20.4-2.6-38.8-1-62.5,16.1-89,41.3,6.7-38,18.5-69.2,42.5-99.9,25-32,67.1-59.4,107.8-64.4-1.8,2.1-3.5,4.3-5.2,6.5-17.4,23-22.3,56.5-18.4,84.5.2-.3.5-.9.7-1.2,11.6-16.3,24.5-33.3,43-42.2,3.5-1.7,6.9-3.6,10.3-5.5-8.7,12.1-16,24.2-20.4,38.5-5.5,20.3-5.4,33.4-4.1,54.2,1,16.6-1.7,39.6-7,55.3-3.5,10.2-12.7,23.6-18.1,33.2,8.6,1.5,15.4,1.5,23.9.9,57.3-4.2,103.8-45.1,124.2-97.5,4.8-12.3,8.7-25.4,12.9-38,9.3,35,17,52.9,11.3,90.9-13.2,86.9-105.2,123.9-181.5,138.4-52.5,10-108.4,21.1-139.5,69.6-3.7,5.8-6.8,14.1-9.6,20.4Z"
	/>
</svg>
