<?xml version="1.0" encoding="UTF-8"?><svg
	id="Flame"
	xmlns="http://www.w3.org/2000/svg"
	viewBox="0 0 680 680"
>
	<defs>
		<style>
			.cls-1 {
				fill: var(--color-primary);
			}
			.cls-2 {
				fill: var(--color-accent);
			}
		</style>
	</defs>
	<path
		class="cls-1"
		d="M140.89,222.95l72.88,115.03c16.7.95,33.01,6.52,46.88,16.31l285.53-145.57-249.12,201.63c3.43,17.32,1.63,35.2-4.91,51.34l72.18,113.91,262.25-418.91-485.69,66.26Z"
	/>
	<path
		class="cls-2"
		d="M56.83,526.13c-11.49-31.37,39.51-134.03,127.37-126.26-11.02-12.59-30.2-11.63-49.43-3.79,8.24-29.82,79.7-84.05,138.06-15.76-57.97-18.7-44.28,56.29-121.21,52.55,11.07,8.76,53.47,30.54,91.19-3.38,4.8,14.97-15.26,29.95-21.61,30.38,53.11,8.01,64.74-36.2,63.52-59.25,23.15,78.48-48.4,113.37-84.84,107.57-50.75-8.07-86.55-43.22-143.05,17.94Z"
	/>
</svg>
