<?xml version="1.0" encoding="UTF-8"?><svg
	id="Layer_3"
	xmlns="http://www.w3.org/2000/svg"
	viewBox="0 0 526 526"
>
	<defs>
		<style>
			.cls-1 {
				fill: #ff0083;
			}
			.cls-2 {
				fill: currentColor;
			}
		</style>
	</defs>
	<path
		class="cls-2"
		d="M273.27,256.96c1.57,6.92,2.41,14.24,2.55,22.14.35,19.8-5.42,37.35-17.12,52.16-.93,1.18-1.99,2.05-2.92,2.82-.33.27-.66.54-.97.82l-5.88,5.31-1.33-7.81c-.49-2.88-.1-5.05.22-6.8l.05-.29c.36-1.99.65-3.65.88-5.32,2.95-20.9,1.96-42.01-3.02-64.52-5.9-26.68-13.22-46.11-23.73-63.02-7.3-11.74-16.6-22.23-27.65-31.19-16.22-13.15-34.81-22.55-56.65-28.6.41.54.81,1.09,1.2,1.65,10.34,14.94,14.53,32.41,12.82,53.42-1.49,18.27-6.51,36.43-14.94,53.99l-.59,1.24c-8.66,18.04-17.62,36.69-23.83,56.05-13.92,43.4-12.09,68.26-8.95,85.07,3.81,20.36,12.95,37.7,27.17,51.55,15.65,15.24,35.48,25.83,60.53,32.3-.32-.43-.63-.86-.95-1.28-5.46-7.36-11.1-14.97-16.2-22.79-11.83-18.17-18.48-38.04-19.79-59.06-1.43-23.15,4.58-44.59,18.4-65.57.71-1.08,1.59-1.83,2.36-2.5.3-.25.62-.53.97-.86l4.77-4.53,2.3,6.16c.25.65.46,1.22.66,1.73.39,1.02.73,1.9,1.03,2.82,2.23,7,6.19,13.69,12.47,21.06,8.87,10.41,20.31,19.74,36.01,29.38,12.69,7.79,22.47,19.14,29.07,33.75,2.07,4.59,3.78,9.26,5.54,14.17,5.39-14.27,2.57-28.88-1.18-41.68l-3.33-11.35,9.89,6.47c10.15,6.64,18.41,15.05,25.26,25.72,4.21,6.56,7.09,13.85,8.8,22.4,4.1-8.14,8.81-19.59,10.64-27.75,5.02-22.4,4.49-45.03-1.56-67.26-8.16-29.97-29.36-57.65-42.98-70.02Z"
	/>
	<path
		class="cls-1"
		d="M128.92,237.94c4.56-9.51,8.07-19.19,10.49-28.96l-91.91,42.61,64.66,22.9c5.01-12.08,10.65-23.82,16.17-35.31l.59-1.24Z"
	/>
	<path
		class="cls-1"
		d="M478.5,51.78l-260.34,120.7c4.11,4.87,7.88,10,11.23,15.39,5.48,8.81,10.12,18.23,14.15,28.86L468.65,61.75l-165.99,216.61c9.11,13.46,17.43,29.55,22,46.33,5.35,19.63,6.62,39.56,3.84,59.4l53.01,33.5L478.5,51.78Z"
	/>
</svg>
